<svg xmlns="http://www.w3.org/2000/svg" viewBox="0 0 1440 320"><path fill="#ffd700" fill-opacity="1" d="M0,256L20,256C40,256,80,256,120,224C160,192,200,128,240,106.7C280,85,320,107,360,122.7C400,139,440,149,480,133.3C520,117,560,75,600,53.3C640,32,680,32,720,58.7C760,85,800,139,840,165.3C880,192,920,192,960,202.7C1000,213,1040,235,1080,250.7C1120,267,1160,277,1200,266.7C1240,256,1280,224,1320,218.7C1360,213,1400,235,1420,245.3L1440,256L1440,320L1420,320C1400,320,1360,320,1320,320C1280,320,1240,320,1200,320C1160,320,1120,320,1080,320C1040,320,1000,320,960,320C920,320,880,320,840,320C800,320,760,320,720,320C680,320,640,320,600,320C560,320,520,320,480,320C440,320,400,320,360,320C320,320,280,320,240,320C200,320,160,320,120,320C80,320,40,320,20,320L0,320Z"></path></svg>
